<svg width="35" height="36" viewBox="0 0 35 36" fill="none" xmlns="http://www.w3.org/2000/svg">
<path d="M17.5192 35.4532C18.2177 35.4473 18.909 35.4109 19.5987 35.3161C21.1789 35.111 22.7229 34.6874 24.1866 34.0575C26.2439 33.1749 28.1195 31.9178 29.718 30.3505C31.1897 28.9077 32.3944 27.2157 33.2763 25.3529C34.0302 23.7499 34.532 22.04 34.7638 20.2838C34.9811 18.5921 34.9607 16.8626 34.6982 15.1812C34.479 13.784 34.0906 12.4187 33.5417 11.1153C33.1916 10.2967 32.7751 9.50803 32.2963 8.75726C30.593 6.07834 28.1241 3.92441 25.2819 2.48651C24.2669 1.96805 23.2066 1.54336 22.1144 1.21777H22.1071C22.2806 1.30965 22.4571 1.41027 22.6102 1.51089C22.7852 1.61881 22.9587 1.72381 23.1221 1.83902C23.9518 2.39615 24.7147 3.04696 25.3956 3.77858C26.9458 5.44835 28.0161 7.49436 28.6301 9.67165C29.0443 11.1037 29.263 12.5853 29.352 14.0713C29.4161 15.1549 29.4161 16.2457 29.2834 17.322C29.0661 19.174 28.4755 20.9823 27.4926 22.5661C26.7689 23.7461 25.8271 24.7776 24.7175 25.6051C22.9033 26.9585 20.5219 27.7664 18.2483 27.2298C17.873 27.1415 17.5075 27.0154 17.1576 26.8535C16.7587 26.6717 16.3783 26.4519 16.0216 26.1973C15.3458 25.7458 14.7354 25.2035 14.2074 24.5858C13.5668 23.8222 13.0506 22.9625 12.6776 22.0381C12.2208 20.8556 11.9769 19.6016 11.9572 18.334C11.9134 16.4776 12.2853 14.6109 13.2026 12.982C13.8171 11.8977 14.6415 10.9469 15.6278 10.1849C15.9559 9.9254 16.3044 9.6993 16.6544 9.48641L16.6777 9.47618C15.9891 9.31876 15.2816 9.25988 14.5763 9.30118C13.9671 9.34186 13.3653 9.45946 12.7855 9.65118C12.2619 9.82618 11.7589 10.0449 11.2995 10.3074C10.9263 10.5216 10.5691 10.7623 10.2305 11.0279C9.92281 11.2903 9.61805 11.5528 9.33367 11.8372C7.69601 13.5187 6.75539 15.7484 6.38498 18.0438C6.16623 19.4627 6.16623 20.9021 6.25227 22.3458C6.4054 24.3802 6.82248 26.4101 7.63038 28.2695C8.12245 29.4187 8.78522 30.487 9.59617 31.4384C10.8372 32.8716 12.4033 33.9868 14.1636 34.6904C15.1496 35.0936 16.1866 35.3586 17.2451 35.4779C17.353 35.4998 17.4623 35.4998 17.5498 35.4998L17.5192 35.4532Z" fill="#3663FF"/>
<path d="M13.2406 34.8729C13.0152 34.7757 12.796 34.6646 12.5843 34.5404C11.4867 33.9484 10.4848 33.1943 9.61223 32.3034C8.01686 30.6452 6.94792 28.5613 6.33543 26.3534C5.93201 24.8414 5.69004 23.2908 5.61356 21.7277C5.54891 20.7156 5.57135 19.6998 5.68064 18.6914C5.87751 16.8584 6.40251 15.0442 7.31979 13.4706C7.97899 12.3099 8.86296 11.2921 9.91996 10.4767C10.6434 9.92226 11.4462 9.47986 12.3014 9.16428C13.9572 8.56478 15.767 8.54166 17.4376 9.09866C17.4799 9.09866 17.4799 9.09866 17.5032 9.14241C17.5251 9.16428 17.5689 9.16428 17.5907 9.18616C17.6564 9.2095 17.7424 9.25175 17.8314 9.2941C18.1799 9.4691 18.5299 9.68925 18.858 9.9066C20.1805 10.8327 21.2354 12.0912 21.916 13.5553C22.5285 14.8881 22.8129 16.3756 22.8363 17.8398C22.8567 19.4133 22.5738 20.9854 21.8956 22.4277C21.0687 24.1673 19.7253 25.6094 18.0486 26.5576C18.1799 26.6013 18.3111 26.6232 18.4438 26.667C18.7719 26.7312 19.0986 26.7749 19.4471 26.7749C21.5879 26.8406 23.6646 25.8124 25.1929 24.3731C25.4773 24.1106 25.7398 23.8262 25.9804 23.5199C26.3085 23.1262 26.6148 22.7324 26.8758 22.3198C27.2243 21.7729 27.5102 21.226 27.7712 20.6368C28.1049 19.8569 28.3538 19.0433 28.5135 18.2102C28.7993 16.746 28.8212 15.2615 28.7308 13.7974C28.5339 10.8486 27.7493 7.89847 26.0445 5.44996C25.7925 5.08713 25.5224 4.73718 25.2352 4.40143C24.757 3.86063 24.2388 3.35657 23.685 2.89354C23.0672 2.38548 22.4015 1.9386 21.6973 1.55918C20.9029 1.19458 20.077 0.902701 19.2299 0.687102L18.7924 0.599603C18.4875 0.555854 18.1799 0.535437 17.8678 0.512104C17.3743 0.490222 16.8801 0.498014 16.3876 0.535437C15.361 0.601062 14.3285 0.768768 13.3076 1.02689C8.41352 2.28979 4.13191 5.70079 1.85257 10.2274C1.12521 11.6695 0.603877 13.2064 0.303833 14.7934C-0.041686 16.6084 -0.0928953 18.4672 0.152169 20.2985C0.327166 21.786 0.697578 23.2487 1.28674 24.6399C1.61778 25.4712 2.03193 26.2791 2.48985 27.0432C4.08524 29.6434 6.40251 31.7623 9.06684 33.2265C10.0702 33.7952 11.1201 34.2327 12.2125 34.6031C12.542 34.711 12.8687 34.8219 13.2172 34.9094L13.2406 34.8729Z" fill="#3663FF"/>
</svg>
