<svg width="24" height="25" viewBox="0 0 24 25" fill="none" xmlns="http://www.w3.org/2000/svg">
<path d="M2.06202 12.6601C1.97868 12.4356 1.97868 12.1886 2.06202 11.9641C2.87372 9.99598 4.25153 8.31317 6.02079 7.12903C7.79004 5.94489 9.87106 5.31274 12 5.31274C14.129 5.31274 16.21 5.94489 17.9792 7.12903C19.7485 8.31317 21.1263 9.99598 21.938 11.9641C22.0214 12.1886 22.0214 12.4356 21.938 12.6601C21.1263 14.6283 19.7485 16.3111 17.9792 17.4952C16.21 18.6794 14.129 19.3115 12 19.3115C9.87106 19.3115 7.79004 18.6794 6.02079 17.4952C4.25153 16.3111 2.87372 14.6283 2.06202 12.6601Z" stroke="black" stroke-opacity="0.5" stroke-width="2" stroke-linecap="round" stroke-linejoin="round"/>
<path d="M12 15.3121C13.6569 15.3121 15 13.969 15 12.3121C15 10.6553 13.6569 9.31213 12 9.31213C10.3432 9.31213 9.00002 10.6553 9.00002 12.3121C9.00002 13.969 10.3432 15.3121 12 15.3121Z" stroke="black" stroke-opacity="0.5" stroke-width="2" stroke-linecap="round" stroke-linejoin="round"/>
</svg>
