<svg width="188" height="40" viewBox="0 0 188 40" fill="none" xmlns="http://www.w3.org/2000/svg">
<g clip-path="url(#clip0_568_226)">
<path d="M20.022 39.9467C20.8203 39.94 21.6103 39.8984 22.3986 39.79C24.2045 39.5556 25.9691 39.0715 27.6419 38.3517C29.9931 37.3429 32.1366 35.9063 33.9635 34.1151C35.6454 32.4661 37.0222 30.5324 38.0301 28.4035C38.8917 26.5715 39.4652 24.6174 39.7301 22.6103C39.9784 20.6769 39.9551 18.7003 39.6551 16.7787C39.4046 15.1819 38.9607 13.6216 38.3334 12.132C37.9333 11.1964 37.4573 10.2951 36.9101 9.43708C34.9635 6.37546 32.1419 3.91382 28.8936 2.27051C27.7336 1.67798 26.5219 1.19263 25.2736 0.820526H25.2653C25.4636 0.925525 25.6653 1.04052 25.8403 1.15552C26.0403 1.27885 26.2386 1.39885 26.4253 1.53052C27.3735 2.16724 28.2454 2.91102 29.0236 3.74716C30.7952 5.65547 32.0185 7.99377 32.7202 10.4821C33.1935 12.1187 33.4435 13.812 33.5452 15.5103C33.6185 16.7487 33.6185 17.9953 33.4668 19.2253C33.2185 21.3419 32.5435 23.4086 31.4202 25.2186C30.5931 26.5672 29.5167 27.746 28.2486 28.6918C26.1753 30.2385 23.4536 31.1618 20.8553 30.5485C20.4263 30.4476 20.0086 30.3035 19.6087 30.1185C19.1529 29.9107 18.7181 29.6595 18.3104 29.3685C17.5381 28.8525 16.8405 28.2328 16.2371 27.5269C15.505 26.6542 14.915 25.6716 14.4887 24.6152C13.9667 23.2638 13.6879 21.8306 13.6654 20.3819C13.6154 18.2603 14.0404 16.127 15.0887 14.2654C15.791 13.0262 16.7332 11.9395 17.8604 11.0687C18.2354 10.7721 18.6337 10.5137 19.0337 10.2704L19.0603 10.2587C18.2733 10.0788 17.4647 10.0115 16.6587 10.0587C15.9624 10.1052 15.2747 10.2396 14.6121 10.4587C14.0137 10.6587 13.4388 10.9087 12.9138 11.2087C12.4873 11.4535 12.079 11.7286 11.6921 12.0321C11.3404 12.332 10.9921 12.632 10.6671 12.957C8.79548 14.8787 7.72049 17.427 7.29716 20.0503C7.04717 21.6719 7.04717 23.3169 7.1455 24.9669C7.3205 27.2919 7.79716 29.6118 8.72048 31.7368C9.28285 33.0502 10.0403 34.2711 10.9671 35.3584C12.3854 36.9963 14.1753 38.2708 16.187 39.075C17.3139 39.5357 18.499 39.8386 19.7087 39.975C19.832 40 19.957 40 20.057 40L20.022 39.9467Z" fill="#3663FF"/>
<path d="M15.1321 39.2833C14.8745 39.1722 14.624 39.0453 14.3821 38.9033C13.1277 38.2268 11.9826 37.3649 10.9854 36.3467C9.16213 34.4517 7.94048 32.0701 7.24049 29.5468C6.77944 27.8187 6.5029 26.0466 6.4155 24.2602C6.34161 23.1035 6.36726 21.9426 6.49216 20.7902C6.71716 18.6953 7.31715 16.622 8.36547 14.8236C9.11885 13.497 10.1291 12.3338 11.3371 11.402C12.1639 10.7683 13.0814 10.2627 14.0587 9.90204C15.9511 9.21689 18.0194 9.19047 19.9287 9.82704C19.977 9.82704 19.977 9.82704 20.0037 9.87704C20.0287 9.90204 20.0787 9.90204 20.1037 9.92704C20.1787 9.95371 20.277 10.002 20.3787 10.0504C20.777 10.2504 21.177 10.502 21.552 10.7504C23.0634 11.8088 24.269 13.2471 25.0469 14.9203C25.7469 16.4436 26.0719 18.1436 26.0986 19.8169C26.1219 21.6152 25.7986 23.4119 25.0236 25.0602C24.0785 27.0483 22.5432 28.6965 20.627 29.7801C20.777 29.8301 20.927 29.8551 21.0786 29.9051C21.4536 29.9785 21.827 30.0285 22.2253 30.0285C24.6719 30.1035 27.0452 28.9285 28.7919 27.2835C29.1169 26.9835 29.4169 26.6585 29.6919 26.3085C30.0669 25.8585 30.4169 25.4085 30.7152 24.9369C31.1135 24.3119 31.4402 23.6869 31.7385 23.0135C32.1199 22.1222 32.4043 21.1924 32.5868 20.2402C32.9135 18.5669 32.9385 16.8703 32.8352 15.197C32.6102 11.827 31.7135 8.45539 29.7652 5.6571C29.4771 5.24243 29.1684 4.84249 28.8402 4.45878C28.2937 3.84072 27.7015 3.26465 27.0686 2.73547C26.3625 2.15484 25.6017 1.64412 24.7969 1.21049C23.889 0.793811 22.9451 0.46023 21.977 0.213831L21.477 0.113832C21.1286 0.063833 20.777 0.0405 20.4203 0.0138337C19.8564 -0.0111746 19.2915 -0.00226979 18.7287 0.0405C17.5554 0.115499 16.3754 0.307163 15.2087 0.60216C9.61545 2.04547 4.72218 5.94376 2.11722 11.117C1.28595 12.7651 0.690145 14.5216 0.347238 16.3353C-0.0476411 18.4096 -0.106166 20.534 0.173907 22.6269C0.373904 24.3269 0.797232 25.9985 1.47056 27.5885C1.84889 28.5385 2.32221 29.4618 2.84554 30.3351C4.66885 33.3067 7.31715 35.7284 10.3621 37.4017C11.5088 38.0517 12.7087 38.5517 13.9571 38.975C14.3337 39.0983 14.7071 39.225 15.1054 39.325L15.1321 39.2833Z" fill="#3663FF"/>
<path d="M49.7479 29.5V11.62H52.5799V26.98H60.3079V29.5H49.7479ZM68.5174 29.788C67.2214 29.788 66.0694 29.492 65.0614 28.9C64.0694 28.292 63.2934 27.476 62.7334 26.452C62.1734 25.412 61.8934 24.252 61.8934 22.972C61.8934 21.66 62.1734 20.5 62.7334 19.492C63.3094 18.484 64.0774 17.692 65.0374 17.116C65.9974 16.524 67.0854 16.228 68.3014 16.228C69.2774 16.228 70.1494 16.396 70.9174 16.732C71.6854 17.068 72.3334 17.532 72.8614 18.124C73.3894 18.7 73.7894 19.364 74.0614 20.116C74.3494 20.868 74.4934 21.668 74.4934 22.516C74.4934 22.724 74.4854 22.94 74.4694 23.164C74.4534 23.388 74.4214 23.596 74.3734 23.788H64.0294V21.628H72.8374L71.5414 22.612C71.7014 21.828 71.6454 21.132 71.3734 20.524C71.1174 19.9 70.7174 19.412 70.1734 19.06C69.6454 18.692 69.0214 18.508 68.3014 18.508C67.5814 18.508 66.9414 18.692 66.3814 19.06C65.8214 19.412 65.3894 19.924 65.0854 20.596C64.7814 21.252 64.6614 22.052 64.7254 22.996C64.6454 23.876 64.7654 24.644 65.0854 25.3C65.4214 25.956 65.8854 26.468 66.4774 26.836C67.0854 27.204 67.7734 27.388 68.5414 27.388C69.3254 27.388 69.9894 27.212 70.5334 26.86C71.0934 26.508 71.5334 26.052 71.8534 25.492L74.0614 26.572C73.8054 27.18 73.4054 27.732 72.8614 28.228C72.3334 28.708 71.6934 29.092 70.9414 29.38C70.2054 29.652 69.3974 29.788 68.5174 29.788ZM80.9109 29.788C80.0309 29.788 79.2549 29.636 78.5829 29.332C77.9269 29.012 77.4149 28.58 77.0469 28.036C76.6789 27.476 76.4949 26.82 76.4949 26.068C76.4949 25.364 76.6469 24.732 76.9509 24.172C77.2709 23.612 77.7589 23.14 78.4149 22.756C79.0709 22.372 79.8949 22.1 80.8869 21.94L85.3989 21.196V23.332L81.4149 24.028C80.6949 24.156 80.1669 24.388 79.8309 24.724C79.4949 25.044 79.3269 25.46 79.3269 25.972C79.3269 26.468 79.5109 26.876 79.8789 27.196C80.2629 27.5 80.7509 27.652 81.3429 27.652C82.0789 27.652 82.7189 27.492 83.2629 27.172C83.8229 26.852 84.2549 26.428 84.5589 25.9C84.8629 25.356 85.0149 24.756 85.0149 24.1V20.764C85.0149 20.124 84.7749 19.604 84.2949 19.204C83.8309 18.788 83.2069 18.58 82.4229 18.58C81.7029 18.58 81.0709 18.772 80.5269 19.156C79.9989 19.524 79.6069 20.004 79.3509 20.596L77.0949 19.468C77.3349 18.828 77.7269 18.268 78.2709 17.788C78.8149 17.292 79.4469 16.908 80.1669 16.636C80.9029 16.364 81.6789 16.228 82.4949 16.228C83.5189 16.228 84.4229 16.42 85.2069 16.804C86.0069 17.188 86.6229 17.724 87.0549 18.412C87.5029 19.084 87.7269 19.868 87.7269 20.764V29.5H85.1349V27.148L85.6869 27.22C85.3829 27.748 84.9909 28.204 84.5109 28.588C84.0469 28.972 83.5109 29.268 82.9029 29.476C82.3109 29.684 81.6469 29.788 80.9109 29.788ZM96.8979 29.788C95.6499 29.788 94.5299 29.492 93.5379 28.9C92.5619 28.292 91.7859 27.476 91.2099 26.452C90.6499 25.428 90.3699 24.276 90.3699 22.996C90.3699 21.716 90.6579 20.564 91.2339 19.54C91.8099 18.516 92.5859 17.708 93.5619 17.116C94.5379 16.524 95.6419 16.228 96.8739 16.228C97.9139 16.228 98.8339 16.436 99.6339 16.852C100.434 17.268 101.066 17.844 101.53 18.58L101.122 19.204V11.332H103.81V29.5H101.242V26.86L101.554 27.364C101.106 28.148 100.466 28.748 99.6339 29.164C98.8019 29.58 97.8899 29.788 96.8979 29.788ZM97.1619 27.268C97.9139 27.268 98.5859 27.084 99.1779 26.716C99.7859 26.348 100.258 25.844 100.594 25.204C100.946 24.548 101.122 23.812 101.122 22.996C101.122 22.18 100.946 21.452 100.594 20.812C100.258 20.172 99.7859 19.668 99.1779 19.3C98.5859 18.932 97.9139 18.748 97.1619 18.748C96.4099 18.748 95.7299 18.932 95.1219 19.3C94.5139 19.668 94.0419 20.172 93.7059 20.812C93.3699 21.452 93.2019 22.18 93.2019 22.996C93.2019 23.812 93.3699 24.548 93.7059 25.204C94.0419 25.844 94.5059 26.348 95.0979 26.716C95.7059 27.084 96.3939 27.268 97.1619 27.268ZM107.24 29.5V11.62H119.024V14.14H110.072V19.276H118.544V21.796H110.072V26.98H119.024V29.5H107.24ZM127.39 29.788C126.142 29.788 125.022 29.492 124.03 28.9C123.054 28.292 122.278 27.476 121.702 26.452C121.142 25.428 120.862 24.276 120.862 22.996C120.862 21.716 121.15 20.564 121.726 19.54C122.302 18.516 123.078 17.708 124.054 17.116C125.03 16.524 126.134 16.228 127.366 16.228C128.406 16.228 129.326 16.436 130.126 16.852C130.926 17.268 131.558 17.844 132.022 18.58L131.614 19.204V11.332H134.302V29.5H131.734V26.86L132.046 27.364C131.598 28.148 130.958 28.748 130.126 29.164C129.294 29.58 128.382 29.788 127.39 29.788ZM127.654 27.268C128.406 27.268 129.078 27.084 129.67 26.716C130.278 26.348 130.75 25.844 131.086 25.204C131.438 24.548 131.614 23.812 131.614 22.996C131.614 22.18 131.438 21.452 131.086 20.812C130.75 20.172 130.278 19.668 129.67 19.3C129.078 18.932 128.406 18.748 127.654 18.748C126.902 18.748 126.222 18.932 125.614 19.3C125.006 19.668 124.534 20.172 124.198 20.812C123.862 21.452 123.694 22.18 123.694 22.996C123.694 23.812 123.862 24.548 124.198 25.204C124.534 25.844 124.998 26.348 125.59 26.716C126.198 27.084 126.886 27.268 127.654 27.268ZM137.468 29.5V16.516H140.18V29.5H137.468ZM137.468 14.74V11.62H140.18V14.74H137.468ZM148.967 29.644C147.607 29.644 146.551 29.26 145.799 28.492C145.047 27.724 144.671 26.644 144.671 25.252V18.964H142.391V16.516H142.751C143.359 16.516 143.831 16.34 144.167 15.988C144.503 15.636 144.671 15.156 144.671 14.548V13.54H147.383V16.516H150.335V18.964H147.383V25.132C147.383 25.58 147.455 25.964 147.599 26.284C147.743 26.588 147.975 26.828 148.295 27.004C148.615 27.164 149.031 27.244 149.543 27.244C149.671 27.244 149.815 27.236 149.975 27.22C150.135 27.204 150.287 27.188 150.431 27.172V29.5C150.207 29.532 149.959 29.564 149.687 29.596C149.415 29.628 149.175 29.644 148.967 29.644ZM159.107 29.788C157.859 29.788 156.715 29.492 155.675 28.9C154.651 28.308 153.835 27.5 153.227 26.476C152.619 25.452 152.315 24.292 152.315 22.996C152.315 21.684 152.619 20.524 153.227 19.516C153.835 18.492 154.651 17.692 155.675 17.116C156.699 16.524 157.843 16.228 159.107 16.228C160.387 16.228 161.531 16.524 162.539 17.116C163.563 17.692 164.371 18.492 164.963 19.516C165.571 20.524 165.875 21.684 165.875 22.996C165.875 24.308 165.571 25.476 164.963 26.5C164.355 27.524 163.539 28.332 162.515 28.924C161.491 29.5 160.355 29.788 159.107 29.788ZM159.107 27.268C159.875 27.268 160.555 27.084 161.147 26.716C161.739 26.348 162.203 25.844 162.539 25.204C162.891 24.548 163.067 23.812 163.067 22.996C163.067 22.18 162.891 21.452 162.539 20.812C162.203 20.172 161.739 19.668 161.147 19.3C160.555 18.932 159.875 18.748 159.107 18.748C158.355 18.748 157.675 18.932 157.067 19.3C156.475 19.668 156.003 20.172 155.651 20.812C155.315 21.452 155.147 22.18 155.147 22.996C155.147 23.812 155.315 24.548 155.651 25.204C156.003 25.844 156.475 26.348 157.067 26.716C157.675 27.084 158.355 27.268 159.107 27.268ZM168.523 29.5V16.516H171.115V19.132L170.875 18.748C171.163 17.9 171.627 17.292 172.267 16.924C172.907 16.54 173.675 16.348 174.571 16.348H175.363V18.82H174.235C173.339 18.82 172.611 19.1 172.051 19.66C171.507 20.204 171.235 20.988 171.235 22.012V29.5H168.523ZM176.664 29.5V28.4H177.464V29.5H176.664ZM179.266 29.5V24.14H180.016V29.5H179.266ZM179.266 23.15V22.05H180.016V23.15H179.266ZM184.061 29.62C183.554 29.62 183.094 29.5 182.681 29.26C182.267 29.0133 181.937 28.68 181.691 28.26C181.451 27.8333 181.331 27.35 181.331 26.81C181.331 26.2767 181.451 25.8 181.691 25.38C181.931 24.96 182.254 24.63 182.661 24.39C183.074 24.1433 183.541 24.02 184.061 24.02C184.581 24.02 185.044 24.14 185.451 24.38C185.864 24.62 186.187 24.95 186.421 25.37C186.661 25.79 186.781 26.27 186.781 26.81C186.781 27.3567 186.657 27.8433 186.411 28.27C186.164 28.69 185.834 29.02 185.421 29.26C185.014 29.5 184.561 29.62 184.061 29.62ZM184.061 28.87C184.421 28.87 184.744 28.78 185.031 28.6C185.324 28.42 185.554 28.1733 185.721 27.86C185.894 27.5467 185.981 27.1967 185.981 26.81C185.981 26.4233 185.894 26.0767 185.721 25.77C185.554 25.4633 185.324 25.22 185.031 25.04C184.744 24.86 184.421 24.77 184.061 24.77C183.701 24.77 183.374 24.86 183.081 25.04C182.794 25.22 182.564 25.4633 182.391 25.77C182.217 26.0767 182.131 26.4233 182.131 26.81C182.131 27.1967 182.217 27.5467 182.391 27.86C182.564 28.1733 182.794 28.42 183.081 28.6C183.374 28.78 183.701 28.87 184.061 28.87Z" fill="white"/>

</g>
<defs>
<clipPath id="clip0_568_226">
<rect width="187.375" height="40" fill="white" transform="translate(0 0.5)"/>
</clipPath>
</defs>
</svg>
