<svg width="41" height="40" viewBox="0 0 41 40" fill="none" xmlns="http://www.w3.org/2000/svg">
<path d="M18.8333 12.6683L8.84332 26.3183C8.60825 26.6394 8.49584 27.034 8.52641 27.4308C8.55698 27.8275 8.72851 28.2003 9.00999 28.4816L10.3717 29.8449C10.6572 30.1302 11.0366 30.3021 11.4394 30.3288C11.8422 30.3555 12.241 30.235 12.5617 29.9899L25.65 19.9999M28 35.2899C26.3333 34.1666 24.4533 33.3333 22.1667 33.3333C18.7367 33.3333 15.62 37.2599 12.1667 36.6666C8.71332 36.0733 7.54165 31.0516 9.66665 29.1666M35.5 11.6666C35.5 16.269 31.769 19.9999 27.1667 19.9999C22.5643 19.9999 18.8333 16.269 18.8333 11.6666C18.8333 7.06421 22.5643 3.33325 27.1667 3.33325C31.769 3.33325 35.5 7.06421 35.5 11.6666Z" stroke="black" stroke-width="2" stroke-linecap="round" stroke-linejoin="round"/>
</svg>
