<svg width="41" height="40" viewBox="0 0 41 40" fill="none" xmlns="http://www.w3.org/2000/svg">
<path d="M3.83337 35C3.83323 32.4339 4.5736 29.9222 5.96562 27.7665C7.35763 25.6107 9.34216 23.9025 11.681 22.8467C14.0199 21.7909 16.6138 21.4325 19.1513 21.8145C21.6888 22.1964 24.0623 23.3025 25.9867 25M32.1667 26.6667V36.6667M37.1667 31.6667H27.1667M25.5 13.3333C25.5 17.9357 21.7691 21.6667 17.1667 21.6667C12.5643 21.6667 8.83337 17.9357 8.83337 13.3333C8.83337 8.73096 12.5643 5 17.1667 5C21.7691 5 25.5 8.73096 25.5 13.3333Z" stroke="black" stroke-width="2" stroke-linecap="round" stroke-linejoin="round"/>
</svg>
