<svg width="41" height="40" viewBox="0 0 41 40" fill="none" xmlns="http://www.w3.org/2000/svg">
<path d="M30.5 35C30.5 31.4638 29.0953 28.0724 26.5948 25.5719C24.0943 23.0714 20.7029 21.6667 17.1667 21.6667M17.1667 21.6667C13.6305 21.6667 10.2391 23.0714 7.73862 25.5719C5.23813 28.0724 3.83337 31.4638 3.83337 35M17.1667 21.6667C21.7691 21.6667 25.5 17.9357 25.5 13.3333C25.5 8.73096 21.7691 5 17.1667 5C12.5643 5 8.83337 8.73096 8.83337 13.3333C8.83337 17.9357 12.5643 21.6667 17.1667 21.6667ZM37.1667 33.3333C37.1667 27.7167 33.8334 22.5 30.5 20C31.5957 19.1779 32.4719 18.0985 33.051 16.8571C33.6301 15.6158 33.8942 14.2508 33.8201 12.883C33.7459 11.5152 33.3357 10.1868 32.6258 9.01533C31.9159 7.84386 30.9282 6.86544 29.75 6.16667" stroke="black" stroke-width="2" stroke-linecap="round" stroke-linejoin="round"/>
</svg>
