<svg width="41" height="40" viewBox="0 0 41 40" fill="none" xmlns="http://www.w3.org/2000/svg">
<path d="M5.5 18.3333L34.1667 10L32.8333 5.66667C32.3333 4 30.5 3 28.6667 3.5L6.16667 10.1667C4.5 10.6667 3.5 12.5 4 14.3333L5.5 18.3333ZM5.5 18.3333H35.5V31.6667C35.5 32.5507 35.1488 33.3986 34.5237 34.0237C33.8986 34.6488 33.0507 35 32.1667 35H8.83334C7.94928 35 7.10144 34.6488 6.47631 34.0237C5.85119 33.3986 5.5 32.5507 5.5 31.6667V18.3333ZM10.8333 8.83334L16 15.3333M21.1667 5.66667L26.3333 12.3333" stroke="black" stroke-width="2" stroke-linecap="round" stroke-linejoin="round"/>
</svg>
